<svg version="1.1" id="Layer_1" xmlns="http://www.w3.org/2000/svg" xmlns:xlink="http://www.w3.org/1999/xlink" x="0px" y="0px"
	 width="100%" viewBox="0 0 500 500" enable-background="new 0 0 500 500" xml:space="preserve">
<path fill="#000101" opacity="1.000000" stroke="none" 
	d="
M344.000000,501.000000 
	C229.333359,501.000000 115.166718,501.000000 1.000061,501.000000 
	C1.000041,334.333405 1.000041,167.666794 1.000020,1.000151 
	C167.666565,1.000100 334.333130,1.000100 500.999756,1.000050 
	C500.999847,167.666519 500.999847,334.333038 500.999939,500.999786 
	C448.833344,501.000000 396.666656,501.000000 344.000000,501.000000 
M280.843414,364.593323 
	C280.353333,365.223938 279.768463,365.802307 279.387756,366.493195 
	C275.067352,374.333557 271.492249,382.703430 266.312134,389.923126 
	C258.665100,400.581024 251.391617,403.634766 242.591644,397.280243 
	C239.813004,395.273712 237.452438,392.539398 235.323120,389.808685 
	C226.802795,378.881897 222.123627,366.024292 217.395737,353.217773 
	C216.914581,351.914459 216.903671,350.437531 216.645935,348.866852 
	C217.758667,348.731628 218.402634,348.585388 219.046677,348.584961 
	C239.212463,348.571564 259.378357,348.548309 279.543915,348.612488 
	C281.337433,348.618164 283.185211,349.024841 284.911713,349.556946 
	C291.426056,351.564636 297.819489,354.026398 304.418976,355.674255 
	C308.760864,356.758392 311.397919,358.727661 313.650055,362.771576 
	C322.594666,378.832336 343.399231,382.789734 356.140869,370.065796 
	C362.192902,364.022095 368.364044,361.044220 376.409576,358.944519 
	C399.376160,352.950714 411.550751,335.394501 408.724182,313.577301 
	C406.175354,293.903778 395.594482,278.086212 383.599609,262.892334 
	C379.191376,267.001221 375.105011,270.898804 370.901489,274.665619 
	C369.854462,275.603851 368.446533,276.694977 367.174622,276.733673 
	C360.442078,276.938507 353.700012,276.829865 346.127716,276.829865 
	C347.519775,275.299957 348.184235,274.371185 349.033905,273.665436 
	C363.624664,261.546295 377.201874,248.409912 388.659515,233.250153 
	C397.958679,220.946259 405.468597,207.699860 408.846741,192.404373 
	C412.933533,173.900574 404.575165,154.677765 385.979767,146.337631 
	C375.110535,141.462708 363.837097,140.444504 352.313660,140.597626 
	C344.240509,140.704895 336.177002,141.535782 327.585480,142.076447 
	C329.937500,151.684677 332.052673,160.325424 334.222443,169.189056 
	C336.363312,168.933914 337.983032,168.720886 339.607239,168.550491 
	C351.743622,167.277222 363.789825,166.216614 375.387390,171.820358 
	C379.972961,174.036011 382.279724,177.617264 381.773621,182.042511 
	C381.123932,187.723465 379.981995,193.675201 377.512329,198.762817 
	C368.132477,218.085571 353.462311,233.233292 337.492523,247.213562 
	C333.980133,250.288391 330.372040,253.253937 326.776581,256.296448 
	C325.435364,237.417465 324.311859,219.318573 322.824585,201.249619 
	C320.984253,178.891266 315.390625,157.294510 308.724915,135.966431 
	C307.861298,133.203110 307.998566,131.379715 309.500824,128.728531 
	C314.721313,119.515594 314.894958,109.799629 309.462677,100.643425 
	C304.348816,92.023964 296.255249,87.664589 286.220856,87.542358 
	C283.067474,87.503944 280.757965,86.913429 278.249481,84.750328 
	C261.406158,70.226128 243.035965,69.609406 225.510529,83.252777 
	C209.839218,95.452766 201.891525,112.781967 194.780731,131.247284 
	C203.812805,133.634918 212.441299,135.915878 221.281509,138.252792 
	C221.870377,136.842819 222.342529,135.625916 222.880127,134.438675 
	C227.486984,124.265038 232.236465,114.172951 240.539566,106.327515 
	C247.204483,100.029961 253.110916,99.747551 259.373718,105.362869 
	C259.336243,105.684525 259.366425,106.032890 259.251526,106.323990 
	C253.888931,119.910271 262.326080,139.206879 279.854797,142.173599 
	C281.167328,142.395737 282.783447,144.311066 283.204742,145.748184 
	C286.011627,155.323257 288.678253,164.946106 291.078613,174.630722 
	C292.158966,178.989456 292.521698,183.526062 293.271393,188.379227 
	C290.272491,186.894714 287.847473,185.845428 285.567230,184.542679 
	C255.957993,167.626724 224.875504,154.348465 191.746719,145.948151 
	C172.180679,140.986877 152.448654,138.631805 132.340469,141.219788 
	C107.169365,144.459412 88.820129,162.115219 92.761360,189.431458 
	C94.526184,201.663315 99.808113,212.615417 106.527802,222.847977 
	C110.301483,228.594452 114.496353,234.064301 118.327156,239.415298 
	C125.309364,232.610779 131.712769,226.370346 138.110870,220.135056 
	C134.568268,214.698853 130.581818,209.525681 127.646950,203.812332 
	C124.714401,198.103516 122.265793,192.002838 120.643417,185.802277 
	C118.812950,178.806396 121.752693,173.915588 128.247986,170.963593 
	C136.385941,167.265030 145.081284,166.509399 153.720749,167.612167 
	C165.757095,169.148544 177.808350,170.996445 189.621857,173.716064 
	C199.283539,175.940308 208.606613,179.635376 218.445572,182.795853 
	C217.579315,183.742188 217.314484,184.178452 216.929245,184.431244 
	C200.682663,195.091324 183.854431,204.973953 168.341919,216.610794 
	C154.844788,226.735779 142.659210,238.655029 130.304443,250.219803 
	C127.704605,252.653397 125.826691,253.597427 122.329155,253.337814 
	C102.522156,251.867706 87.138290,272.438171 95.068642,290.266785 
	C97.434525,295.585632 97.036301,299.777252 95.446838,304.872162 
	C89.696175,323.305603 93.685837,341.190552 110.939941,352.807068 
	C118.016342,357.571411 126.133484,359.994141 134.753860,361.098663 
	C148.411697,362.848633 161.860641,361.913483 175.592667,359.971558 
	C174.622437,356.037262 173.773468,352.594696 172.780396,348.567749 
	C177.203857,348.567749 180.876205,348.266357 184.455032,348.713470 
	C185.922852,348.896851 187.918747,350.426178 188.427521,351.803772 
	C191.594589,360.379120 193.979691,369.260284 197.435150,377.708313 
	C203.192520,391.784058 210.475830,405.013794 221.689804,415.678009 
	C238.413422,431.581757 258.623291,432.547455 276.807953,418.425293 
	C285.548737,411.637238 291.700775,402.806183 296.873260,393.274536 
	C300.546387,386.505798 303.559692,379.378998 307.144043,371.829559 
	C297.878540,369.218201 289.730133,366.921722 280.843414,364.593323 
z"/>
<path fill="#9CE2F3" opacity="1.000000" stroke="none" 
	d="
M281.212585,364.609283 
	C289.730133,366.921722 297.878540,369.218201 307.144043,371.829559 
	C303.559692,379.378998 300.546387,386.505798 296.873260,393.274536 
	C291.700775,402.806183 285.548737,411.637238 276.807953,418.425293 
	C258.623291,432.547455 238.413422,431.581757 221.689804,415.678009 
	C210.475830,405.013794 203.192520,391.784058 197.435150,377.708313 
	C193.979691,369.260284 191.594589,360.379120 188.427521,351.803772 
	C187.918747,350.426178 185.922852,348.896851 184.455032,348.713470 
	C180.876205,348.266357 177.203857,348.567749 172.780396,348.567749 
	C173.773468,352.594696 174.622437,356.037262 175.592667,359.971558 
	C161.860641,361.913483 148.411697,362.848633 134.753860,361.098663 
	C126.133484,359.994141 118.016342,357.571411 110.939941,352.807068 
	C93.685837,341.190552 89.696175,323.305603 95.446838,304.872162 
	C97.036301,299.777252 97.434525,295.585632 95.068642,290.266785 
	C87.138290,272.438171 102.522156,251.867706 122.329155,253.337814 
	C125.826691,253.597427 127.704605,252.653397 130.304443,250.219803 
	C142.659210,238.655029 154.844788,226.735779 168.341919,216.610794 
	C183.854431,204.973953 200.682663,195.091324 216.929245,184.431244 
	C217.314484,184.178452 217.579315,183.742188 218.445572,182.795853 
	C208.606613,179.635376 199.283539,175.940308 189.621857,173.716064 
	C177.808350,170.996445 165.757095,169.148544 153.720749,167.612167 
	C145.081284,166.509399 136.385941,167.265030 128.247986,170.963593 
	C121.752693,173.915588 118.812950,178.806396 120.643417,185.802277 
	C122.265793,192.002838 124.714401,198.103516 127.646950,203.812332 
	C130.581818,209.525681 134.568268,214.698853 138.110870,220.135056 
	C131.712769,226.370346 125.309364,232.610779 118.327156,239.415298 
	C114.496353,234.064301 110.301483,228.594452 106.527802,222.847977 
	C99.808113,212.615417 94.526184,201.663315 92.761360,189.431458 
	C88.820129,162.115219 107.169365,144.459412 132.340469,141.219788 
	C152.448654,138.631805 172.180679,140.986877 191.746719,145.948151 
	C224.875504,154.348465 255.957993,167.626724 285.567230,184.542679 
	C287.847473,185.845428 290.272491,186.894714 293.271393,188.379227 
	C292.521698,183.526062 292.158966,178.989456 291.078613,174.630722 
	C288.678253,164.946106 286.011627,155.323257 283.204742,145.748184 
	C282.783447,144.311066 281.167328,142.395737 279.854797,142.173599 
	C262.326080,139.206879 253.888931,119.910271 259.251526,106.323990 
	C259.366425,106.032890 259.336243,105.684525 259.368408,105.362251 
	C253.110916,99.747551 247.204483,100.029961 240.539566,106.327515 
	C232.236465,114.172951 227.486984,124.265038 222.880127,134.438675 
	C222.342529,135.625916 221.870377,136.842819 221.281509,138.252792 
	C212.441299,135.915878 203.812805,133.634918 194.780731,131.247284 
	C201.891525,112.781967 209.839218,95.452766 225.510529,83.252777 
	C243.035965,69.609406 261.406158,70.226128 278.249481,84.750328 
	C280.757965,86.913429 283.067474,87.503944 286.220856,87.542358 
	C296.255249,87.664589 304.348816,92.023964 309.462677,100.643425 
	C314.894958,109.799629 314.721313,119.515594 309.500824,128.728531 
	C307.998566,131.379715 307.861298,133.203110 308.724915,135.966431 
	C315.390625,157.294510 320.984253,178.891266 322.824585,201.249619 
	C324.311859,219.318573 325.435364,237.417465 326.776581,256.296448 
	C330.372040,253.253937 333.980133,250.288391 337.492523,247.213562 
	C353.462311,233.233292 368.132477,218.085571 377.512329,198.762817 
	C379.981995,193.675201 381.123932,187.723465 381.773621,182.042511 
	C382.279724,177.617264 379.972961,174.036011 375.387390,171.820358 
	C363.789825,166.216614 351.743622,167.277222 339.607239,168.550491 
	C337.983032,168.720886 336.363312,168.933914 334.222443,169.189056 
	C332.052673,160.325424 329.937500,151.684677 327.585480,142.076447 
	C336.177002,141.535782 344.240509,140.704895 352.313660,140.597626 
	C363.837097,140.444504 375.110535,141.462708 385.979767,146.337631 
	C404.575165,154.677765 412.933533,173.900574 408.846741,192.404373 
	C405.468597,207.699860 397.958679,220.946259 388.659515,233.250153 
	C377.201874,248.409912 363.624664,261.546295 349.033905,273.665436 
	C348.184235,274.371185 347.519775,275.299957 346.127716,276.829865 
	C353.700012,276.829865 360.442078,276.938507 367.174622,276.733673 
	C368.446533,276.694977 369.854462,275.603851 370.901489,274.665619 
	C375.105011,270.898804 379.191376,267.001221 383.599609,262.892334 
	C395.594482,278.086212 406.175354,293.903778 408.724182,313.577301 
	C411.550751,335.394501 399.376160,352.950714 376.409576,358.944519 
	C368.364044,361.044220 362.192902,364.022095 356.140869,370.065796 
	C343.399231,382.789734 322.594666,378.832336 313.650055,362.771576 
	C311.397919,358.727661 308.760864,356.758392 304.418976,355.674255 
	C297.819489,354.026398 291.426056,351.564636 284.911713,349.556946 
	C283.185211,349.024841 281.337433,348.618164 279.543915,348.612488 
	C259.378357,348.548309 239.212463,348.571564 219.046677,348.584961 
	C218.402634,348.585388 217.758667,348.731628 216.645935,348.866852 
	C216.903671,350.437531 216.914581,351.914459 217.395737,353.217773 
	C222.123627,366.024292 226.802795,378.881897 235.323120,389.808685 
	C237.452438,392.539398 239.813004,395.273712 242.591644,397.280243 
	C251.391617,403.634766 258.665100,400.581024 266.312134,389.923126 
	C271.492249,382.703430 275.067352,374.333557 279.387756,366.493195 
	C279.768463,365.802307 280.353333,365.223938 281.212585,364.609283 
M235.500000,276.995941 
	C256.100983,276.995941 276.701935,276.995941 297.591309,276.995941 
	C297.591309,259.549683 297.648895,242.771362 297.472565,225.995499 
	C297.459656,224.768173 296.010010,223.127441 294.796173,222.407059 
	C281.657013,214.609299 268.401642,207.007492 255.251434,199.228043 
	C252.228210,197.439560 249.668991,197.191437 246.501480,199.097198 
	C233.405273,206.976547 220.134018,214.565231 207.052399,222.468185 
	C205.693665,223.289017 204.442856,225.454483 204.371689,227.050873 
	C203.919510,237.192368 203.763519,247.348526 203.610596,257.501373 
	C203.514130,263.906189 203.592621,270.313629 203.592621,276.995941 
	C214.860718,276.995941 224.680359,276.995941 235.500000,276.995941 
M266.708008,309.279663 
	C267.027710,307.649414 267.640594,306.011963 267.600861,304.390533 
	C267.535400,301.720581 267.047607,299.060974 266.737823,296.397034 
	C264.322388,296.981201 261.907135,297.566254 259.491211,298.148346 
	C259.172546,298.225159 258.850220,298.286743 259.747314,298.094788 
	C257.012665,297.126740 255.319992,296.184875 253.550018,296.005371 
	C252.032074,295.851410 250.435211,296.775452 248.855865,296.848846 
	C246.989822,296.935547 245.071381,296.377167 243.249374,296.629913 
	C242.711670,296.704498 242.283417,298.547638 242.043488,299.633026 
	C240.285919,307.584442 238.553055,315.541840 236.896439,323.514801 
	C236.442032,325.701691 236.273087,327.947906 235.940628,330.407349 
	C238.166000,330.407349 239.781158,330.407349 241.862015,330.407349 
	C243.627167,322.427795 245.428360,314.518860 247.102188,306.583099 
	C247.637268,304.046204 247.988174,301.611206 251.870071,302.490692 
	C249.979858,311.856232 248.134247,321.000824 246.305450,330.062134 
	C250.919083,331.469696 252.725342,330.127411 253.355682,326.001038 
	C254.358246,319.438263 255.786209,312.929535 257.323639,306.466827 
	C257.724670,304.780914 259.196136,303.349640 260.175964,301.801422 
	C260.769379,302.077545 261.362823,302.353668 261.956238,302.629822 
	C260.122986,311.783325 258.289734,320.936859 256.447723,330.134125 
	C260.371643,331.318085 262.558899,330.627380 263.190735,326.226105 
	C263.968048,320.811432 265.401947,315.491028 266.708008,309.279663 
M306.973175,311.566650 
	C309.073792,306.429810 311.174438,301.292969 313.167145,296.420105 
	C310.776215,296.682434 308.388397,297.671112 306.617889,297.009003 
	C300.027069,294.544342 294.679535,296.196259 292.809692,302.875397 
	C291.164124,308.753479 290.867889,315.009338 289.975769,321.098358 
	C290.528809,321.193298 291.081879,321.288269 291.634918,321.383209 
	C288.197906,324.083618 284.704254,326.768372 288.976624,331.319305 
	C287.982452,332.020325 286.977112,332.350708 286.696808,332.996063 
	C285.766876,335.137054 284.311035,337.510651 284.621246,339.558014 
	C284.810272,340.805420 287.835938,342.368225 289.656067,342.462341 
	C293.054779,342.638123 296.620819,342.269165 299.903046,341.356567 
	C304.462677,340.088837 305.728394,336.010376 305.649017,331.874329 
	C305.574829,328.007263 302.340302,326.963806 299.085083,326.218597 
	C297.360046,325.823669 295.726837,325.027557 294.052185,324.412567 
	C293.975433,323.940552 293.898651,323.468536 293.821899,322.996521 
	C301.145844,322.747253 305.762146,319.500214 306.973175,311.566650 
M192.565765,310.014252 
	C191.267349,316.676880 189.968918,323.339508 188.609787,330.313629 
	C190.812195,330.313629 192.714966,330.313629 194.880859,330.313629 
	C196.878281,320.691467 199.050735,311.302368 200.708557,301.823273 
	C201.654938,296.412048 199.089371,294.727661 194.161072,296.929291 
	C193.578873,297.189362 192.986313,297.426239 191.653931,297.987610 
	C192.635452,293.202301 193.506500,288.955627 194.421188,284.496155 
	C191.989578,284.496155 190.208252,284.496155 188.057892,284.496155 
	C184.886948,299.759155 181.738831,314.912384 178.521515,330.398621 
	C181.227264,330.398621 182.842789,330.398621 184.653107,330.398621 
	C186.438660,322.354187 188.115128,314.417847 190.017593,306.536041 
	C190.424866,304.848724 191.651382,303.359131 192.500504,301.778473 
	C193.022736,302.034760 193.544983,302.291046 194.067215,302.547333 
	C193.630310,304.765076 193.193405,306.982849 192.565765,310.014252 
M161.273926,257.784882 
	C157.497284,261.684143 153.509750,265.407623 150.043396,269.565582 
	C148.570023,271.332916 148.188385,274.010406 147.144348,276.703003 
	C157.896469,276.703003 167.127197,276.703003 176.071274,276.703003 
	C176.071274,266.256378 176.071274,256.126801 176.071274,244.683121 
	C170.617676,249.481537 166.188950,253.378220 161.273926,257.784882 
M138.574966,327.102814 
	C141.210999,323.286652 144.018997,319.572723 146.383667,315.595276 
	C147.144348,314.315796 147.409225,311.966064 146.734528,310.756683 
	C144.846634,307.372681 142.349380,304.328644 140.178177,301.270996 
	C137.569794,302.789307 135.387512,304.324646 132.993790,305.380798 
	C130.433487,306.510437 127.625893,307.069641 125.024490,308.120941 
	C123.961227,308.550690 122.614891,309.452026 122.316185,310.421814 
	C119.043335,321.047455 120.093727,330.451294 134.424088,332.807983 
	C135.657883,331.143768 136.924744,329.434967 138.574966,327.102814 
M162.205719,330.658386 
	C171.368164,331.861420 175.085175,328.175995 177.544052,315.426758 
	C173.253296,313.815216 170.670441,314.678772 170.098358,319.806244 
	C169.909225,321.501343 168.246185,323.031982 167.257065,324.637817 
	C166.570740,324.398407 165.884399,324.158997 165.198059,323.919617 
	C165.646576,320.465179 165.894287,316.969971 166.586227,313.565002 
	C167.945007,306.878876 169.428665,300.210632 171.171021,293.617065 
	C171.472687,292.475494 173.303146,291.737946 174.427460,290.813812 
	C174.825775,291.934540 175.582520,293.068970 175.540451,294.172913 
	C175.473206,295.937531 174.875519,297.681915 174.447403,299.691498 
	C176.693283,299.691498 178.606934,299.691498 180.858994,299.691498 
	C181.356308,296.906403 182.130142,294.321533 182.220856,291.712891 
	C182.431564,285.652985 178.255508,282.705139 172.340256,284.171753 
	C167.180984,285.450928 165.105377,289.344788 164.049637,293.812256 
	C161.908066,302.874664 160.014252,312.001526 158.280365,321.151428 
	C157.622314,324.623993 157.642654,328.248505 162.205719,330.658386 
M347.123322,323.786835 
	C348.686798,316.652710 350.514496,309.564117 351.752747,302.373993 
	C353.671722,291.230957 344.460114,298.685211 340.955566,296.404327 
	C338.847748,295.032440 335.960785,295.967529 335.664246,299.961365 
	C335.371399,303.905823 334.218262,307.789520 333.401642,311.691284 
	C332.125031,317.790894 330.813934,323.883270 329.446014,330.314545 
	C332.077026,330.314545 333.821533,330.314545 335.674042,330.314545 
	C337.518829,322.145813 339.234009,314.195831 341.163361,306.298157 
	C341.564728,304.655090 342.759277,303.205811 343.588318,301.667206 
	C344.084869,301.922974 344.581390,302.178711 345.077942,302.434479 
	C343.271423,311.725433 341.464905,321.016388 339.637085,330.416992 
	C346.152832,330.655121 346.152832,330.655121 347.123322,323.786835 
M310.244263,325.157532 
	C310.301697,330.189575 313.546753,331.171265 317.653564,330.862701 
	C323.412598,330.429962 326.856018,325.809082 326.980225,318.510559 
	C325.253906,318.510559 323.527588,318.510559 322.418915,318.510559 
	C320.868896,321.253571 319.610901,323.479828 318.352905,325.706055 
	C317.660492,325.481934 316.968048,325.257843 316.275635,325.033722 
	C316.634949,322.096863 315.967590,317.648071 317.578430,316.554260 
	C320.468658,314.591644 324.728149,314.645447 328.808563,313.772461 
	C329.231323,310.883789 329.782532,307.622894 330.167450,304.342468 
	C330.539429,301.172180 330.973663,297.659302 327.154694,296.293457 
	C323.052551,294.826324 319.203918,295.748230 316.511810,299.415253 
	C315.453857,300.856354 314.576752,302.603424 314.196594,304.338135 
	C312.742950,310.970276 311.524963,317.654114 310.244263,325.157532 
M217.030670,328.281281 
	C222.287857,332.685333 228.904190,331.892639 231.217300,325.647522 
	C233.720352,318.889496 234.858643,311.604950 236.333344,304.496338 
	C237.021317,301.180054 237.045380,297.690033 233.063141,296.098877 
	C229.345749,294.613556 223.909454,296.377045 222.357758,300.070526 
	C218.686447,308.809235 216.081314,317.851135 217.030670,328.281281 
M272.147858,304.746490 
	C270.813110,310.734863 269.141968,316.677582 268.319916,322.735535 
	C268.018402,324.957428 269.070526,328.649780 270.678864,329.532196 
	C272.901520,330.751678 276.826965,330.971161 278.939667,329.747772 
	C281.501923,328.264130 283.789734,325.090942 284.676331,322.185059 
	C286.456818,316.349182 287.566101,310.236206 288.201141,304.159149 
	C288.450836,301.769562 287.384247,297.969757 285.664734,296.973358 
	C283.574799,295.762268 279.679962,295.949554 277.456177,297.163177 
	C275.181580,298.404480 273.984314,301.619934 272.147858,304.746490 
M366.523865,308.962097 
	C365.709198,310.190796 364.894531,311.419495 363.946442,312.849396 
	C366.923492,317.316498 369.799744,321.765137 372.831573,326.105133 
	C373.811218,327.507477 375.613708,329.859894 376.318176,329.623871 
	C377.972351,329.069611 379.524048,327.417389 380.488708,325.828064 
	C381.386871,324.348297 381.834778,322.379181 381.853973,320.618683 
	C381.945496,312.223633 378.653534,304.960876 374.093445,297.623169 
	C371.443085,301.523499 369.138214,304.915375 366.523865,308.962097 
M205.090469,304.549561 
	C203.376114,313.085968 201.661758,321.622375 199.966278,330.064758 
	C204.782623,331.634491 206.587585,329.980743 207.236786,325.740967 
	C208.141479,319.832642 209.349991,313.943695 210.915527,308.178711 
	C211.446548,306.223175 213.321228,303.322968 214.811905,303.175262 
	C219.940414,302.667023 218.972198,299.220154 219.410446,296.761902 
	C215.155411,296.761902 211.197052,296.761902 206.859558,296.761902 
	C206.367859,298.901642 205.813568,301.313782 205.090469,304.549561 
z"/>
<path fill="#010202" opacity="1.000000" stroke="none" 
	d="
M235.000000,276.995941 
	C224.680359,276.995941 214.860718,276.995941 203.592621,276.995941 
	C203.592621,270.313629 203.514130,263.906189 203.610596,257.501373 
	C203.763519,247.348526 203.919510,237.192368 204.371689,227.050873 
	C204.442856,225.454483 205.693665,223.289017 207.052399,222.468185 
	C220.134018,214.565231 233.405273,206.976547 246.501480,199.097198 
	C249.668991,197.191437 252.228210,197.439560 255.251434,199.228043 
	C268.401642,207.007492 281.657013,214.609299 294.796173,222.407059 
	C296.010010,223.127441 297.459656,224.768173 297.472565,225.995499 
	C297.648895,242.771362 297.591309,259.549683 297.591309,276.995941 
	C276.701935,276.995941 256.100983,276.995941 235.000000,276.995941 
z"/>
<path fill="#0D1011" opacity="1.000000" stroke="none" 
	d="
M266.630035,309.704773 
	C265.401947,315.491028 263.968048,320.811432 263.190735,326.226105 
	C262.558899,330.627380 260.371643,331.318085 256.447723,330.134125 
	C258.289734,320.936859 260.122986,311.783325 261.956238,302.629822 
	C261.362823,302.353668 260.769379,302.077545 260.175964,301.801422 
	C259.196136,303.349640 257.724670,304.780914 257.323639,306.466827 
	C255.786209,312.929535 254.358246,319.438263 253.355682,326.001038 
	C252.725342,330.127411 250.919083,331.469696 246.305450,330.062134 
	C248.134247,321.000824 249.979858,311.856232 251.870071,302.490692 
	C247.988174,301.611206 247.637268,304.046204 247.102188,306.583099 
	C245.428360,314.518860 243.627167,322.427795 241.862015,330.407349 
	C239.781158,330.407349 238.166000,330.407349 235.940628,330.407349 
	C236.273087,327.947906 236.442032,325.701691 236.896439,323.514801 
	C238.553055,315.541840 240.285919,307.584442 242.043488,299.633026 
	C242.283417,298.547638 242.711670,296.704498 243.249374,296.629913 
	C245.071381,296.377167 246.989822,296.935547 248.855865,296.848846 
	C250.435211,296.775452 252.032074,295.851410 253.550018,296.005371 
	C255.319992,296.184875 257.012665,297.126740 259.747314,298.094788 
	C258.850220,298.286743 259.172546,298.225159 259.491211,298.148346 
	C261.907135,297.566254 264.322388,296.981201 266.737823,296.397034 
	C267.047607,299.060974 267.535400,301.720581 267.600861,304.390533 
	C267.640594,306.011963 267.027710,307.649414 266.630035,309.704773 
z"/>
<path fill="#0B0D0E" opacity="1.000000" stroke="none" 
	d="
M306.917297,311.962952 
	C305.762146,319.500214 301.145844,322.747253 293.821899,322.996521 
	C293.898651,323.468536 293.975433,323.940552 294.052185,324.412567 
	C295.726837,325.027557 297.360046,325.823669 299.085083,326.218597 
	C302.340302,326.963806 305.574829,328.007263 305.649017,331.874329 
	C305.728394,336.010376 304.462677,340.088837 299.903046,341.356567 
	C296.620819,342.269165 293.054779,342.638123 289.656067,342.462341 
	C287.835938,342.368225 284.810272,340.805420 284.621246,339.558014 
	C284.311035,337.510651 285.766876,335.137054 286.696808,332.996063 
	C286.977112,332.350708 287.982452,332.020325 288.976624,331.319305 
	C284.704254,326.768372 288.197906,324.083618 291.634918,321.383209 
	C291.081879,321.288269 290.528809,321.193298 289.975769,321.098358 
	C290.867889,315.009338 291.164124,308.753479 292.809692,302.875397 
	C294.679535,296.196259 300.027069,294.544342 306.617889,297.009003 
	C308.388397,297.671112 310.776215,296.682434 313.167145,296.420105 
	C311.174438,301.292969 309.073792,306.429810 306.917297,311.962952 
M297.179443,310.490631 
	C297.005249,312.589142 296.831085,314.687653 296.656891,316.786163 
	C297.182037,316.855927 297.707184,316.925690 298.232300,316.995453 
	C301.469238,312.537231 301.944611,307.353943 302.197998,301.200623 
	C297.356934,303.036072 298.109406,306.780487 297.179443,310.490631 
M290.744965,335.576691 
	C294.013916,338.671204 296.360321,338.378540 299.282990,334.289978 
	C296.334137,333.024841 293.512909,330.249695 290.744965,335.576691 
z"/>
<path fill="#0C0F11" opacity="1.000000" stroke="none" 
	d="
M192.661133,309.607422 
	C193.193405,306.982849 193.630310,304.765076 194.067215,302.547333 
	C193.544983,302.291046 193.022736,302.034760 192.500504,301.778473 
	C191.651382,303.359131 190.424866,304.848724 190.017593,306.536041 
	C188.115128,314.417847 186.438660,322.354187 184.653107,330.398621 
	C182.842789,330.398621 181.227264,330.398621 178.521515,330.398621 
	C181.738831,314.912384 184.886948,299.759155 188.057892,284.496155 
	C190.208252,284.496155 191.989578,284.496155 194.421188,284.496155 
	C193.506500,288.955627 192.635452,293.202301 191.653931,297.987610 
	C192.986313,297.426239 193.578873,297.189362 194.161072,296.929291 
	C199.089371,294.727661 201.654938,296.412048 200.708557,301.823273 
	C199.050735,311.302368 196.878281,320.691467 194.880859,330.313629 
	C192.714966,330.313629 190.812195,330.313629 188.609787,330.313629 
	C189.968918,323.339508 191.267349,316.676880 192.661133,309.607422 
z"/>
<path fill="#050607" opacity="1.000000" stroke="none" 
	d="
M161.517059,257.529907 
	C166.188950,253.378220 170.617676,249.481537 176.071274,244.683121 
	C176.071274,256.126801 176.071274,266.256378 176.071274,276.703003 
	C167.127197,276.703003 157.896469,276.703003 147.144348,276.703003 
	C148.188385,274.010406 148.570023,271.332916 150.043396,269.565582 
	C153.509750,265.407623 157.497284,261.684143 161.517059,257.529907 
z"/>
<path fill="#060708" opacity="1.000000" stroke="none" 
	d="
M138.383286,327.414490 
	C136.924744,329.434967 135.657883,331.143768 134.424088,332.807983 
	C120.093727,330.451294 119.043335,321.047455 122.316185,310.421814 
	C122.614891,309.452026 123.961227,308.550690 125.024490,308.120941 
	C127.625893,307.069641 130.433487,306.510437 132.993790,305.380798 
	C135.387512,304.324646 137.569794,302.789307 140.178177,301.270996 
	C142.349380,304.328644 144.846634,307.372681 146.734528,310.756683 
	C147.409225,311.966064 147.144348,314.315796 146.383667,315.595276 
	C144.018997,319.572723 141.210999,323.286652 138.383286,327.414490 
z"/>
<path fill="#0A0B0D" opacity="1.000000" stroke="none" 
	d="
M161.822998,330.518066 
	C157.642654,328.248505 157.622314,324.623993 158.280365,321.151428 
	C160.014252,312.001526 161.908066,302.874664 164.049637,293.812256 
	C165.105377,289.344788 167.180984,285.450928 172.340256,284.171753 
	C178.255508,282.705139 182.431564,285.652985 182.220856,291.712891 
	C182.130142,294.321533 181.356308,296.906403 180.858994,299.691498 
	C178.606934,299.691498 176.693283,299.691498 174.447403,299.691498 
	C174.875519,297.681915 175.473206,295.937531 175.540451,294.172913 
	C175.582520,293.068970 174.825775,291.934540 174.427460,290.813812 
	C173.303146,291.737946 171.472687,292.475494 171.171021,293.617065 
	C169.428665,300.210632 167.945007,306.878876 166.586227,313.565002 
	C165.894287,316.969971 165.646576,320.465179 165.198059,323.919617 
	C165.884399,324.158997 166.570740,324.398407 167.257065,324.637817 
	C168.246185,323.031982 169.909225,321.501343 170.098358,319.806244 
	C170.670441,314.678772 173.253296,313.815216 177.544052,315.426758 
	C175.085175,328.175995 171.368164,331.861420 161.822998,330.518066 
z"/>
<path fill="#0E1213" opacity="1.000000" stroke="none" 
	d="
M347.070312,324.201050 
	C346.152832,330.655121 346.152832,330.655121 339.637085,330.416992 
	C341.464905,321.016388 343.271423,311.725433 345.077942,302.434479 
	C344.581390,302.178711 344.084869,301.922974 343.588318,301.667206 
	C342.759277,303.205811 341.564728,304.655090 341.163361,306.298157 
	C339.234009,314.195831 337.518829,322.145813 335.674042,330.314545 
	C333.821533,330.314545 332.077026,330.314545 329.446014,330.314545 
	C330.813934,323.883270 332.125031,317.790894 333.401642,311.691284 
	C334.218262,307.789520 335.371399,303.905823 335.664246,299.961365 
	C335.960785,295.967529 338.847748,295.032440 340.955566,296.404327 
	C344.460114,298.685211 353.671722,291.230957 351.752747,302.373993 
	C350.514496,309.564117 348.686798,316.652710 347.070312,324.201050 
z"/>
<path fill="#0C0E0F" opacity="1.000000" stroke="none" 
	d="
M310.231628,324.738098 
	C311.524963,317.654114 312.742950,310.970276 314.196594,304.338135 
	C314.576752,302.603424 315.453857,300.856354 316.511810,299.415253 
	C319.203918,295.748230 323.052551,294.826324 327.154694,296.293457 
	C330.973663,297.659302 330.539429,301.172180 330.167450,304.342468 
	C329.782532,307.622894 329.231323,310.883789 328.808563,313.772461 
	C324.728149,314.645447 320.468658,314.591644 317.578430,316.554260 
	C315.967590,317.648071 316.634949,322.096863 316.275635,325.033722 
	C316.968048,325.257843 317.660492,325.481934 318.352905,325.706055 
	C319.610901,323.479828 320.868896,321.253571 322.418915,318.510559 
	C323.527588,318.510559 325.253906,318.510559 326.983276,318.509247 
	C326.856018,325.809082 323.412598,330.429962 317.653564,330.862701 
	C313.546753,331.171265 310.301697,330.189575 310.231628,324.738098 
M324.309906,305.215546 
	C324.103058,303.856689 323.896210,302.497833 323.689362,301.138977 
	C323.121704,301.067352 322.554077,300.995728 321.986420,300.924103 
	C320.815186,303.588409 319.643951,306.252747 318.431793,309.010162 
	C322.603241,310.910919 323.802795,309.109528 324.309906,305.215546 
z"/>
<path fill="#0B0E0F" opacity="1.000000" stroke="none" 
	d="
M216.899475,327.899231 
	C216.081314,317.851135 218.686447,308.809235 222.357758,300.070526 
	C223.909454,296.377045 229.345749,294.613556 233.063141,296.098877 
	C237.045380,297.690033 237.021317,301.180054 236.333344,304.496338 
	C234.858643,311.604950 233.720352,318.889496 231.217300,325.647522 
	C228.904190,331.892639 222.287857,332.685333 216.899475,327.899231 
M228.641678,301.414520 
	C224.826538,305.688202 221.567566,321.707062 224.202377,325.933441 
	C225.303802,324.257202 226.701935,322.961243 227.070007,321.419403 
	C228.379166,315.935211 229.425446,310.381927 230.352463,304.818329 
	C230.531448,303.744110 229.724030,302.505524 228.641678,301.414520 
z"/>
<path fill="#0A0C0D" opacity="1.000000" stroke="none" 
	d="
M272.231689,304.358887 
	C273.984314,301.619934 275.181580,298.404480 277.456177,297.163177 
	C279.679962,295.949554 283.574799,295.762268 285.664734,296.973358 
	C287.384247,297.969757 288.450836,301.769562 288.201141,304.159149 
	C287.566101,310.236206 286.456818,316.349182 284.676331,322.185059 
	C283.789734,325.090942 281.501923,328.264130 278.939667,329.747772 
	C276.826965,330.971161 272.901520,330.751678 270.678864,329.532196 
	C269.070526,328.649780 268.018402,324.957428 268.319916,322.735535 
	C269.141968,316.677582 270.813110,310.734863 272.231689,304.358887 
M281.972778,306.322144 
	C281.972778,304.640656 281.972778,302.959167 281.972778,301.277679 
	C281.370178,301.184479 280.767578,301.091278 280.164978,300.998108 
	C279.443634,302.522278 278.470215,303.980072 278.047943,305.583008 
	C276.743011,310.536407 275.501007,315.517670 274.562988,320.549347 
	C274.287781,322.025696 275.106842,323.706024 275.424347,325.292877 
	C276.659241,323.957886 278.576019,322.809021 279.000793,321.252899 
	C280.259247,316.642883 280.929047,311.872162 281.972778,306.322144 
z"/>
<path fill="#080A0B" opacity="1.000000" stroke="none" 
	d="
M366.678589,308.634705 
	C369.138214,304.915375 371.443085,301.523499 374.093445,297.623169 
	C378.653534,304.960876 381.945496,312.223633 381.853973,320.618683 
	C381.834778,322.379181 381.386871,324.348297 380.488708,325.828064 
	C379.524048,327.417389 377.972351,329.069611 376.318176,329.623871 
	C375.613708,329.859894 373.811218,327.507477 372.831573,326.105133 
	C369.799744,321.765137 366.923492,317.316498 363.946442,312.849396 
	C364.894531,311.419495 365.709198,310.190796 366.678589,308.634705 
z"/>
<path fill="#0E1213" opacity="1.000000" stroke="none" 
	d="
M205.174866,304.137756 
	C205.813568,301.313782 206.367859,298.901642 206.859558,296.761902 
	C211.197052,296.761902 215.155411,296.761902 219.410446,296.761902 
	C218.972198,299.220154 219.940414,302.667023 214.811905,303.175262 
	C213.321228,303.322968 211.446548,306.223175 210.915527,308.178711 
	C209.349991,313.943695 208.141479,319.832642 207.236786,325.740967 
	C206.587585,329.980743 204.782623,331.634491 199.966278,330.064758 
	C201.661758,321.622375 203.376114,313.085968 205.174866,304.137756 
z"/>
<path fill="#8FCEDE" opacity="1.000000" stroke="none" 
	d="
M297.238373,310.085571 
	C298.109406,306.780487 297.356934,303.036072 302.197998,301.200623 
	C301.944611,307.353943 301.469238,312.537231 298.232300,316.995453 
	C297.707184,316.925690 297.182037,316.855927 296.656891,316.786163 
	C296.831085,314.687653 297.005249,312.589142 297.238373,310.085571 
z"/>
<path fill="#8FCEDE" opacity="1.000000" stroke="none" 
	d="
M290.853394,335.204651 
	C293.512909,330.249695 296.334137,333.024841 299.282990,334.289978 
	C296.360321,338.378540 294.013916,338.671204 290.853394,335.204651 
z"/>
<path fill="#85BECC" opacity="1.000000" stroke="none" 
	d="
M324.211609,305.579498 
	C323.802795,309.109528 322.603241,310.910919 318.431793,309.010162 
	C319.643951,306.252747 320.815186,303.588409 321.986420,300.924103 
	C322.554077,300.995728 323.121704,301.067352 323.689362,301.138977 
	C323.896210,302.497833 324.103058,303.856689 324.211609,305.579498 
z"/>
<path fill="#8FCEDE" opacity="1.000000" stroke="none" 
	d="
M229.006668,301.378662 
	C229.724030,302.505524 230.531448,303.744110 230.352463,304.818329 
	C229.425446,310.381927 228.379166,315.935211 227.070007,321.419403 
	C226.701935,322.961243 225.303802,324.257202 224.202377,325.933441 
	C221.567566,321.707062 224.826538,305.688202 229.006668,301.378662 
z"/>
<path fill="#8FCEDD" opacity="1.000000" stroke="none" 
	d="
M281.900909,306.743225 
	C280.929047,311.872162 280.259247,316.642883 279.000793,321.252899 
	C278.576019,322.809021 276.659241,323.957886 275.424377,325.292877 
	C275.106842,323.706024 274.287781,322.025696 274.562988,320.549347 
	C275.501007,315.517670 276.743011,310.536407 278.047943,305.583008 
	C278.470215,303.980072 279.443634,302.522278 280.164978,300.998108 
	C280.767578,301.091278 281.370178,301.184479 281.972778,301.277679 
	C281.972778,302.959167 281.972778,304.640656 281.900909,306.743225 
z"/>
</svg>